<?xml version="1.0" encoding="utf-8"?>
<!-- Generator: Adobe Illustrator 16.0.0, SVG Export Plug-In . SVG Version: 6.00 Build 0)  -->
<!DOCTYPE svg PUBLIC "-//W3C//DTD SVG 1.1//EN" "http://www.w3.org/Graphics/SVG/1.1/DTD/svg11.dtd">
<svg version="1.1" id="Layer_1" xmlns="http://www.w3.org/2000/svg" xmlns:xlink="http://www.w3.org/1999/xlink" x="0px" y="0px"
	 width="72px" height="72px" viewBox="0 0 72 72" enable-background="new 0 0 72 72" xml:space="preserve">
<g>
	<path fill="#ED1C24" d="M36,0C16.117,0,0,16.117,0,36s16.117,36,36,36c19.881,0,36-16.117,36-36S55.881,0,36,0z M44.481,37.972
		l7.994,7.995c1.124,1.124,1.124,2.962,0,4.085l-2.279,2.279c-1.123,1.124-2.961,1.124-4.086,0l-7.994-7.994
		c-1.124-1.124-2.962-1.124-4.085,0l-7.995,7.994c-1.124,1.124-2.962,1.124-4.085,0l-2.279-2.279c-1.123-1.123-1.123-2.961,0-4.085
		l7.995-7.995c1.123-1.124,1.123-2.962,0-4.085l-7.995-7.995c-1.124-1.124-1.124-2.962,0-4.086l2.278-2.278
		c1.123-1.124,2.962-1.124,4.086,0l7.995,7.995c1.123,1.123,2.961,1.123,4.085,0l7.996-7.995c1.123-1.124,2.961-1.124,4.084,0
		l2.279,2.279c1.123,1.123,1.123,2.961,0,4.085l-7.995,7.995C43.358,35.01,43.358,36.848,44.481,37.972z"/>
</g>
</svg>
