<?xml version="1.0" encoding="utf-8"?>
<!-- Generator: Adobe Illustrator 16.0.0, SVG Export Plug-In . SVG Version: 6.00 Build 0)  -->
<!DOCTYPE svg PUBLIC "-//W3C//DTD SVG 1.1//EN" "http://www.w3.org/Graphics/SVG/1.1/DTD/svg11.dtd">
<svg version="1.1" id="Layer_1" xmlns="http://www.w3.org/2000/svg" xmlns:xlink="http://www.w3.org/1999/xlink" x="0px" y="0px"
	 width="16px" height="16px" viewBox="0 0 16 16" enable-background="new 0 0 16 16" xml:space="preserve">
<g>
	<path fill="#FFFFFF" d="M8,0C3.582,0,0,3.582,0,8s3.582,8,8,8s8-3.582,8-8S12.418,0,8,0z M10.2,8.516l2.075,2.075
		c0.293,0.292,0.293,0.771,0,1.062l-0.592,0.593c-0.291,0.292-0.77,0.292-1.062,0l-2.076-2.076c-0.292-0.292-0.769-0.292-1.061,0
		L5.41,12.244c-0.292,0.292-0.769,0.292-1.061,0l-0.592-0.592c-0.292-0.293-0.292-0.771,0-1.062l2.077-2.076
		c0.292-0.292,0.292-0.769,0-1.061L3.757,5.377c-0.292-0.292-0.292-0.77,0-1.061l0.592-0.592c0.292-0.292,0.769-0.292,1.061,0
		L7.487,5.8c0.292,0.292,0.769,0.292,1.061,0l2.077-2.076c0.291-0.292,0.77-0.292,1.061,0l0.592,0.592
		c0.293,0.292,0.293,0.769,0,1.061L10.2,7.454C9.908,7.746,9.908,8.223,10.2,8.516z"/>
</g>
</svg>
