<?xml version="1.0" encoding="utf-8"?>
<!-- Generator: Adobe Illustrator 16.0.0, SVG Export Plug-In . SVG Version: 6.00 Build 0)  -->
<!DOCTYPE svg PUBLIC "-//W3C//DTD SVG 1.1//EN" "http://www.w3.org/Graphics/SVG/1.1/DTD/svg11.dtd">
<svg version="1.1" id="Layer_1" xmlns="http://www.w3.org/2000/svg" xmlns:xlink="http://www.w3.org/1999/xlink" x="0px" y="0px"
	 width="473.05px" height="58.156px" viewBox="0 0 473.05 58.156" enable-background="new 0 0 473.05 58.156" xml:space="preserve">
<g>
	<g>
		<path fill="#FFFFFF" d="M94.517,20.18v23.528h-2.814V20.18H82.59v-2.584h21.077v2.584H94.517z"/>
		<path fill="#FFFFFF" d="M116.581,43.708V17.596h18.378v2.584h-15.641v8.366h13.286v2.584h-13.286v9.994h15.641v2.584H116.581z"/>
		<path fill="#FFFFFF" d="M166.576,43.708L151.759,20.89v22.818h-2.622V17.596h3.496l14.499,22.292V17.596h2.661v26.112H166.576z"/>
		<path fill="#FFFFFF" d="M213.462,20.18v23.528h-2.814V20.18h-9.112v-2.584h21.077v2.584H213.462z"/>
		<path fill="#FFFFFF" d="M253.675,43.708V31.13h-15.41v12.578h-2.737V17.596h2.737v10.95h15.41v-10.95h2.738v26.112H253.675z"/>
		<path fill="#FFFFFF" d="M295.535,30.652c0,1.928-0.298,3.718-0.892,5.369c-0.595,1.653-1.438,3.084-2.531,4.289
			c-1.093,1.207-2.413,2.153-3.959,2.844c-1.547,0.688-3.272,1.033-5.177,1.033c-1.902,0-3.625-0.346-5.169-1.033
			c-1.546-0.689-2.865-1.637-3.964-2.844c-1.098-1.205-1.942-2.636-2.535-4.289c-0.594-1.651-0.891-3.441-0.891-5.369
			c0-1.939,0.297-3.735,0.891-5.389c0.593-1.652,1.438-3.082,2.535-4.288c1.099-1.206,2.418-2.15,3.964-2.834
			c1.544-0.683,3.267-1.023,5.169-1.023c1.904,0,3.63,0.341,5.177,1.023c1.546,0.684,2.866,1.628,3.959,2.834
			s1.937,2.636,2.531,4.288C295.237,26.917,295.535,28.712,295.535,30.652z M292.587,30.652c0-1.629-0.225-3.117-0.67-4.465
			c-0.447-1.347-1.086-2.502-1.916-3.464c-0.828-0.962-1.838-1.706-3.023-2.232c-1.188-0.525-2.521-0.789-4.001-0.789
			c-1.493,0-2.834,0.264-4.021,0.789c-1.188,0.526-2.195,1.271-3.024,2.232c-0.83,0.962-1.466,2.117-1.905,3.464
			c-0.439,1.348-0.66,2.836-0.66,4.465c0,1.63,0.221,3.115,0.66,4.455c0.439,1.342,1.075,2.492,1.905,3.455
			c0.829,0.963,1.838,1.709,3.024,2.242c1.187,0.531,2.526,0.799,4.021,0.799c1.479,0,2.813-0.268,4.001-0.799
			c1.188-0.533,2.195-1.279,3.023-2.242c0.83-0.963,1.469-2.113,1.916-3.455C292.363,33.768,292.587,32.282,292.587,30.652z"/>
		<path fill="#FFFFFF" d="M330.138,33.984c0,1.543-0.268,2.945-0.803,4.201c-0.535,1.258-1.271,2.33-2.209,3.217
			c-0.939,0.887-2.047,1.572-3.328,2.058s-2.668,0.728-4.16,0.728c-1.504,0-2.895-0.242-4.17-0.728
			c-1.273-0.485-2.375-1.171-3.299-2.058s-1.646-1.959-2.172-3.217c-0.521-1.256-0.783-2.658-0.783-4.201V17.596h2.738v16.427
			c0,1.139,0.178,2.172,0.535,3.099c0.357,0.928,0.867,1.724,1.523,2.39c0.658,0.665,1.463,1.18,2.416,1.545
			c0.951,0.364,2.021,0.547,3.209,0.547c1.178,0,2.244-0.183,3.201-0.547c0.959-0.365,1.777-0.88,2.453-1.545
			c0.678-0.666,1.199-1.462,1.562-2.39c0.363-0.927,0.547-1.96,0.547-3.099V17.596h2.736v16.388H330.138z"/>
		<path fill="#FFFFFF" d="M353.207,17.118c1.971,0,3.746,0.385,5.33,1.155c1.582,0.771,2.912,1.851,3.994,3.238l-2.104,1.655
			c-0.842-1.09-1.893-1.94-3.15-2.551c-1.258-0.609-2.68-0.914-4.262-0.914c-0.74,0-1.457,0.077-2.146,0.231
			c-0.691,0.153-1.305,0.397-1.842,0.73s-0.969,0.775-1.293,1.327c-0.326,0.552-0.49,1.219-0.49,2c0,0.785,0.16,1.431,0.48,1.938
			c0.32,0.508,0.768,0.933,1.336,1.273c0.57,0.34,1.236,0.616,2,0.825c0.762,0.209,1.578,0.434,2.451,0.673l2.379,0.653
			c0.773,0.217,1.512,0.465,2.215,0.747c0.703,0.279,1.35,0.604,1.939,0.976c0.59,0.368,1.102,0.806,1.539,1.309
			c0.438,0.504,0.775,1.087,1.018,1.75c0.24,0.662,0.361,1.429,0.361,2.294c0,1.174-0.229,2.236-0.688,3.192
			c-0.457,0.955-1.104,1.771-1.941,2.444c-0.838,0.677-1.842,1.197-3.01,1.567c-1.168,0.369-2.465,0.554-3.887,0.554
			c-1.16,0-2.25-0.121-3.264-0.361c-1.016-0.241-1.949-0.582-2.805-1.021s-1.621-0.964-2.297-1.574
			c-0.678-0.609-1.258-1.285-1.742-2.021l2.393-1.688c0.447,0.715,0.971,1.328,1.57,1.84s1.244,0.934,1.934,1.266
			c0.688,0.332,1.412,0.577,2.172,0.736c0.76,0.16,1.535,0.24,2.326,0.24c0.945,0,1.812-0.111,2.598-0.336
			c0.787-0.225,1.465-0.555,2.031-0.988c0.57-0.436,1.012-0.967,1.324-1.594s0.469-1.345,0.469-2.15
			c0-0.857-0.186-1.562-0.555-2.112c-0.369-0.551-0.887-1.004-1.549-1.362c-0.664-0.357-1.459-0.654-2.389-0.892
			c-0.93-0.235-1.938-0.49-3.027-0.769c-0.67-0.168-1.342-0.34-2.016-0.51c-0.676-0.172-1.316-0.391-1.924-0.658
			c-0.604-0.269-1.17-0.578-1.691-0.929c-0.525-0.352-0.975-0.763-1.352-1.235s-0.674-1.018-0.891-1.636
			c-0.217-0.619-0.324-1.331-0.324-2.135c0-1.148,0.227-2.166,0.678-3.054c0.453-0.887,1.074-1.637,1.865-2.25
			c0.789-0.612,1.717-1.078,2.781-1.397C350.818,17.274,351.97,17.118,353.207,17.118z"/>
		<path fill="#FFFFFF" d="M395.441,43.708l-3.121-7.851h-12.473l-3.197,7.851h-2.881l10.656-26.112h3.299l10.432,26.112H395.441z
			 M386.16,20.366l-5.26,12.909h10.393L386.16,20.366z"/>
		<path fill="#FFFFFF" d="M428.513,43.708L413.695,20.89v22.818h-2.621V17.596h3.496l14.498,22.292V17.596h2.66v26.112H428.513z"/>
		<path fill="#FFFFFF" d="M447.419,43.708V17.596h9.83c1.977,0,3.734,0.328,5.27,0.985c1.537,0.658,2.834,1.57,3.895,2.738
			c1.059,1.167,1.865,2.546,2.42,4.135s0.832,3.321,0.832,5.196c0,1.865-0.277,3.591-0.832,5.18s-1.361,2.968-2.42,4.136
			c-1.061,1.168-2.355,2.083-3.895,2.746c-1.535,0.664-3.293,0.996-5.27,0.996H447.419z M457.228,41.125
			c1.533,0,2.893-0.252,4.072-0.757c1.184-0.504,2.176-1.212,2.98-2.125c0.805-0.912,1.412-2.013,1.82-3.302
			s0.613-2.719,0.613-4.289c0-1.583-0.205-3.019-0.613-4.309c-0.408-1.288-1.016-2.39-1.82-3.302s-1.797-1.618-2.98-2.115
			c-1.182-0.498-2.539-0.747-4.072-0.747h-7.07v20.944L457.228,41.125L457.228,41.125z"/>
	</g>
	<g>
		<path fill="#FFFFFF" d="M53.918,55.979L35.529,37.588l3.182-3.182L57.1,52.796L53.918,55.979z M6.568,55.979l-3.183-3.183
			l18.388-18.39l3.183,3.182L6.568,55.979z M38.711,23.75l-3.182-3.182l18.389-18.39L57.1,5.36L38.711,23.75z M21.773,23.75
			L3.386,5.36l3.183-3.182l18.388,18.39L21.773,23.75z"/>
	</g>
</g>
</svg>
