<?xml version="1.0" encoding="utf-8"?>
<!-- Generator: Adobe Illustrator 16.0.0, SVG Export Plug-In . SVG Version: 6.00 Build 0)  -->
<!DOCTYPE svg PUBLIC "-//W3C//DTD SVG 1.1//EN" "http://www.w3.org/Graphics/SVG/1.1/DTD/svg11.dtd">
<svg version="1.1" id="Layer_1" xmlns="http://www.w3.org/2000/svg" xmlns:xlink="http://www.w3.org/1999/xlink" x="0px" y="0px"
	 width="26.125px" height="26.125px" viewBox="0 -10.125 26.125 26.125" enable-background="new 0 -10.125 26.125 26.125"
	 xml:space="preserve">
<path fill="#231F20" d="M14.23,4.857v2.935c0,0.413-0.338,0.751-0.752,0.75L12.64,8.545c-0.413,0-0.752-0.34-0.751-0.752V4.855
	c0-0.412-0.337-0.75-0.75-0.75H8.206c-0.413,0-0.75-0.336-0.75-0.75V2.519c0-0.414,0.339-0.752,0.751-0.751h2.938
	c0.412,0,0.75-0.337,0.75-0.75v-2.937c0-0.413,0.338-0.751,0.75-0.75h0.836c0.414,0,0.75,0.337,0.75,0.75v2.936
	c0,0.413,0.338,0.75,0.752,0.75l2.937,0.001c0.412-0.001,0.75,0.337,0.75,0.75v0.837c0,0.415-0.337,0.75-0.751,0.75H14.98
	C14.566,4.105,14.23,4.443,14.23,4.857z"/>
<g>
	<path fill="#231F20" d="M13.062-8.125c6.1,0,11.062,4.963,11.062,11.062S19.162,14,13.062,14S2,9.037,2,2.938
		S6.963-8.125,13.062-8.125 M13.062-10.125C5.849-10.125,0-4.277,0,2.938C0,10.151,5.849,16,13.062,16s13.062-5.849,13.062-13.062
		C26.125-4.277,20.276-10.125,13.062-10.125L13.062-10.125z"/>
</g>
</svg>
